<svg viewBox="0 0 100 100" xmlns="http://www.w3.org/2000/svg"><symbol viewBox="0 0 850.39 850.39" id="features-events"><title>events</title> <g> <path d="M771.048,649.951c-26.202-26.5-45.36-63.457-67.435-111.806
		c-52.768-115.583-46.268-343.521-197.731-396.788c0-82.98-77.145-84.484-80.882-84.517V57c0,0-0.03,0-0.077,0S425,57,425,57v-0.159
		c-4,0.032-80.959,1.617-80.959,84.597c-151.464,53.268-145.002,281.165-197.771,396.748
		c-22.073,48.349-41.251,85.285-67.453,111.785C44.472,684.707,67.979,708,79,708c45.774,0,172.582,0,263.964,0
		c0,54.931,41.036,83.667,82.036,85.137c40.948-1.47,81.881-30.206,81.881-85.137c91.383,0,218.191,0,263.965,0
		C781.867,708,805.394,684.688,771.048,649.951z M425.5,176.5c-21.539,0-39-17.461-39-39s17.461-39,39-39s39,17.461,39,39
		S447.039,176.5,425.5,176.5z"/> <path d="M425,793.144v-0.003C424.974,793.141,425,793.143,425,793.144z"/> </g> </symbol><symbol viewBox="0 0 850.39 850.39" id="features-meteo"><title>meteo</title> <g> <path d="M794.948,376.622c0,65.626-50.33,119.488-114.495,125.116
		c-0.645,0.304-1.362,0.478-2.122,0.478h-7.616c-0.46,0.005-0.917,0.018-1.377,0.018c-0.461,0-0.918-0.013-1.377-0.018H189.768
		c-0.304,0-0.601-0.031-0.89-0.083c-1.672,0.065-3.352,0.101-5.04,0.101c-69.373,0-125.611-56.238-125.611-125.611
		c0-69.373,56.238-125.611,125.611-125.611c0.312,0,0.623,0.009,0.935,0.012c-0.001-0.197-0.004-0.393-0.004-0.589
		c0-105.84,85.801-191.641,191.641-191.641c77.181,0,143.702,45.627,174.07,111.377c11.021-4.836,23.198-7.525,36.005-7.525
		c49.156,0,89.07,39.543,89.684,88.554C742.365,254.746,794.948,309.541,794.948,376.622z"/> <path d="M624.727,658.361c0.121-0.09,0.297-0.06,0.394,0.069
		c0.096,0.129,0.075,0.307-0.046,0.397c-0.122,0.09-0.298,0.06-0.395-0.069C624.584,658.63,624.604,658.452,624.727,658.361z"/> <path d="M426.25,529.672l-53.188,124.656h53.188L383.122,794
		l179.3-169.172h-56.844l112.859-95.156H426.25z"/> </g> </symbol><symbol viewBox="0 0 850.39 850.39" id="features-prices"><title>prices</title> <path d="M795.225,424.558
	c0-115.304-52.775-218.251-135.615-285.916c0,0,47.668-6.457,47.93-13.503C707.807,117.921,565.5,95.5,565.5,95.5
	s46.941,137.034,51.814,135.495c7.593-2.396,7.025-48.683,7.025-48.683c71.262,56.795,113.882,142.038,113.882,240.246
	c0,121.028-69.722,225.843-170.722,276.896v65.993C701.5,709.938,795.225,578.22,795.225,424.558z"/> <path d="M324.952,538.719c0,0,43.374,43.951,104.096,43.951
		c38.171,0,70.554-21.398,70.554-60.145c0-84.432-200.094-71.133-200.094-194.89c0-56.097,43.373-102.94,107.566-112.193v-54.361
		h41.061v53.783c64.771,4.626,98.89,39.903,98.89,39.903l-26.023,47.422c0,0-37.592-35.277-89.638-35.277
		c-43.953,0-74.024,27.18-74.024,59.565c0,80.965,200.094,64.194,200.094,194.313c0,57.832-41.061,105.83-109.299,113.926v53.207
		h-41.061v-53.207c-74.025-7.518-114.507-52.627-114.507-52.627L324.952,538.719z"/> <path d="M56.638,422.389
	c0,115.305,52.707,218.252,135.546,285.916c0,0-47.702,6.457-47.964,13.504c-0.268,7.217,142.022,29.638,142.022,29.638
	s-46.95-137.034-51.823-135.495c-7.593,2.396-7.03,48.684-7.03,48.684c-71.261-56.795-113.746-142.037-113.746-240.246
	c0-121.027,69.857-225.843,170.857-276.896V81.5C150.5,137.008,56.638,268.727,56.638,422.389z"/> </symbol><symbol viewBox="0 0 850.39 850.39" id="features-readings"><title>readings</title> <g> <path d="M624.727,658.361c0.121-0.09,0.297-0.06,0.394,0.069
		c0.096,0.129,0.075,0.307-0.046,0.397c-0.122,0.09-0.298,0.06-0.395-0.069C624.584,658.63,624.604,658.452,624.727,658.361z"/> </g> <g> <path d="M426.697,340.658c46.966,0,85.039,38.073,85.039,85.04
		c0,46.966-38.073,85.039-85.039,85.039c-46.966,0-85.04-38.073-85.04-85.039C341.658,378.731,379.731,340.658,426.697,340.658z"/> <path d="M511.357,540.208c0,0,57.448-39.396,57.26-114.511
		c-0.188-75.115-57.26-113.599-57.26-113.599l43.802-38.527c0,0,71.138,54.496,71.138,152.126
		c0,97.629-71.927,153.395-71.927,153.395L511.357,540.208z"/> <path d="M576.237,254.042l41.392-37.44c0,0,92.139,76.142,92.139,209.096
		c0,132.953-92.837,210.339-92.837,210.339l-41.397-37.427c0,0,79.934-62.566,78.935-172.912
		C653.469,315.351,576.237,254.042,576.237,254.042z"/> <path d="M639.422,197.603l41.703-37.945
		c0,0,114.076,94.973,114.076,266.04c0,171.066-114.921,267.985-114.921,267.985l-42.052-38.118c0,0,101.682-85.46,100.98-229.867
		C738.508,281.29,639.422,197.603,639.422,197.603z"/> <path d="M511.357,312.099l43.802-38.527"/> <path d="M617.629,216.602c0,0,92.139,76.142,92.139,209.096"/> <path d="M639.422,197.603l41.703-37.945"/> <path d="M341.833,539.233c0,0-57.447-39.397-57.259-114.512
		s57.259-113.598,57.259-113.598 M341.833,311.124l-43.801-38.527c0,0-71.138,54.496-71.138,152.125
		c0,97.63,71.927,153.396,71.927,153.396l43.012-38.884"/> <path d="M276.953,253.066l-41.391-37.44c0,0-92.139,76.142-92.139,209.095
		s92.836,210.339,92.836,210.339l41.398-37.427c0,0-79.934-62.565-78.935-172.912C199.722,314.375,276.953,253.066,276.953,253.066z
		"/> <path d="M213.77,196.628l-41.704-37.945
		c0,0-114.076,94.973-114.076,266.039s114.92,267.985,114.92,267.985l42.051-38.118c0,0-101.681-85.46-100.98-229.867
		S213.77,196.628,213.77,196.628z"/> <path d="M341.833,311.124l-43.801-38.527"/> <path d="M235.562,215.626c0,0-92.139,76.142-92.139,209.095"/> <path d="M213.77,196.628l-41.704-37.945"/> </g> </symbol><symbol viewBox="0 0 850.39 850.39" id="features-reports"><title>reports</title> <path d="M170,56v738h510V56H170z M623,736H226V113h397V736z"/> <g> <path d="M254.806,241.366v27.751h340.235v-27.751H254.806z"/> <path d="M254.806,354.514v28.477h340.235v-28.477H254.806z"/> <path d="M254.806,468.332v28.118h340.235v-28.118H254.806z"/> <path d="M254.806,581.35v27.938h340.235V581.35H254.806z"/> </g> </symbol><symbol viewBox="0 0 850.39 850.39" id="features-savings"><title>savings</title> <g> <path d="M570.402,57.743c-122.462,0-221.737,99.275-221.737,221.738
		c0,42.179,11.779,81.606,32.224,115.175c-0.068-0.015-0.133-0.03-0.202-0.044c-0.444,0-326.314,342.817-326.314,342.817
		l57.371,56.655c0,0,51.932-48.686,115.693-108.301C327.871,591.881,457,470.861,457,470.275c0-0.001,0-0.003,0-0.004
		c33,19.65,71.929,30.946,113.214,30.946c122.463,0,221.833-99.274,221.833-221.737C792.047,157.018,692.865,57.743,570.402,57.743z
		 M569.104,446.614c-92.318,0-167.157-74.838-167.157-167.156c0-3.988,6.25-167.156,167.157-167.156
		c92.317,0,167.155,74.838,167.155,167.156C736.259,371.776,661.421,446.614,569.104,446.614z"/> <path d="M430.613,279.473c0-3.332,5.222-139.655,139.655-139.655
		c-0.05,0.021-0.156,28,0.124,27.875c-107.299,0-113.464,108.85-113.464,111.509C448.714,279.469,436.935,279.469,430.613,279.473z"/> </g> </symbol><symbol viewBox="0 0 850.39 850.39" id="features-stats"><title>stats</title> <g> <path d="M794.256,737.177H567.473V284.379h226.783V737.177z"/> <path d="M539.081,737.177H312.412V170.323h226.669V737.177z"/> <path d="M284.144,737.177H57.299V56.984h226.844V737.177z"/> <path d="M57.299,793.628v-28.12h736.957v28.12H57.299z"/> </g> </symbol><symbol viewBox="0 0 850.39 850.39" id="features-users"><title>users</title> <g> <path d="M624.727,658.361c0.121-0.09,0.297-0.06,0.394,0.069
		c0.096,0.129,0.075,0.307-0.046,0.397c-0.122,0.09-0.298,0.06-0.395-0.069C624.584,658.63,624.604,658.452,624.727,658.361z"/> </g> <g> <path d="M57.215,795.2h421.499V548.394c0,0-2.917-178.099-212.208-178.099
		c-209.291,0-209.291,178.099-209.291,178.099V795.2z"/> <path d="M266.29,99.953c66.746,0,120.855,54.108,120.855,120.854
		c0,66.747-54.109,120.855-120.855,120.855s-120.854-54.108-120.854-120.855C145.436,154.062,199.544,99.953,266.29,99.953z"/> <path d="M57.215,795.2h421.499V548.394c0,0-2.917-178.099-212.208-178.099
		c-209.291,0-209.291,178.099-209.291,178.099V795.2z"/> <path d="M266.29,99.953c66.746,0,120.855,54.108,120.855,120.854
		c0,66.747-54.109,120.855-120.855,120.855s-120.854-54.108-120.854-120.855C145.436,154.062,199.544,99.953,266.29,99.953"/> <path d="M507.691,668.135c109.579,0,283.005,0,283.005,0V451.13
		c0,0-2.564-156.593-186.583-156.593c-112.189,0-155.981,58.204-173.074,103.642c0.209,0.172,29.435,15.04,47.851,52.618
		S507.236,516.81,507.691,668.135z"/> <path d="M603.923,56.839c58.687,0,106.262,47.575,106.262,106.261
		s-47.575,106.262-106.262,106.262s-106.261-47.575-106.261-106.262S545.236,56.839,603.923,56.839"/> </g> </symbol></svg>