<svg xmlns="http://www.w3.org/2000/svg" version="1.1" x="0" y="0" width="850.4" height="850.4" viewBox="0 0 850.4 850.4" enable-background="new 0 0 850.39 850.39" xml:space="preserve"><path fill="#F47A37" d="M385 2C283.4 2 201 84.4 201 186s82.4 184 184 184 184-82.4 184-184S486.6 2 385 2zM385 301.3c-63.7 0-115.2-51.6-115.2-115.2S321.3 70.8 385 70.8c63.7 0 115.3 51.6 115.3 115.3S448.7 301.3 385 301.3z"/><path fill="#005AAB" d="M667.8 464.9c-44.7-1.9-36.4 22-44.7 22 -9.3 0 0-51.6-44.7-51.6 -45.2-0.1-34.7 29.4-45.2 29.4 -7.4 0 0-54.7-45-54.7 -43.9 0-26.7 37.8-44.2 36.6C439.9 446.3 436.5 277.3 424 156.5c-3.7-36.2-71.2-37.5-78.7 3.8 -3.3 18.3-3.9 376.5-16.9 418.8C308 645.2 187.5 455.1 95 594.1c197.2 73.1 133.2 161.3 269.1 255.7 0.9-0.8 312.4 0.1 312.4 0.1S755.2 468.7 667.8 464.9z"/></svg>