<svg xmlns="http://www.w3.org/2000/svg" version="1.1" x="0" y="0" width="850.4" height="850.4" viewBox="0 0 850.4 850.4" enable-background="new 0 0 850.391 850.39" xml:space="preserve"><g enable-background="new"><path fill="#F47A37" d="M157.7 300.6h-42.6l-11.2 32.5h-16.3l40.6-113H144.9L185.5 333h-16.5L157.7 300.6zM136.4 235.6c0 0-2.6 10.2-4.5 16l-12.6 35.8h34.2l-12.5-35.8c-1.9-5.8-4.3-16-4.3-16H136.4z"/></g><path fill="#005AAB" d="M425.5 115H28.3 0v28.7 425.2 28.4 113.4V739h28.3H396.9h28.3 396.9 28v-28.4V413v-28.3V381H425.2L425.5 115zM425.2 413h396.8v297h-28V568.9c0 0-142 0.1-142 141.1H425v-29h-28v29H28V290h29v-28H28V143h369v241.6 28.3L396.9 539c-2.1 0 28.1 0 28.1 0V413L425.2 413z"/></svg>