<svg xmlns="http://www.w3.org/2000/svg" version="1.1" x="0" y="0" width="850.4" height="850.4" viewBox="0 0 850.4 850.4" enable-background="new 0 0 850.391 850.391" xml:space="preserve"><path fill="#F47A37" d="M725.9 121.4c-2.7-6.4-8.9-10.7-16.5-10.7 -2.9 0-5.5 0.6-7.9 1.8L584.1 20c0.1-0.7 0.1-1.4 0.1-2C584.2 7.7 576.4 0 566.3 0c-10.3 0-17.9 8-17.9 17.9 0 3.8 1.2 7.4 3.3 10.3L428.5 307.4c-1-0.2-2-0.3-3.1-0.3 -1.7 0-3.4 0.2-5 0.7l-121.8-166.9c1.8-2.8 2.8-6.1 2.8-9.7 0-10.2-7.8-17.9-17.9-17.9 -10.3 0-17.9 8-17.9 17.9 0 1.3 0.2 2.6 0.4 3.8l-114.3 91.5c-2.7-1.5-5.8-2.4-9.2-2.4 -4.7 0-8.8 1.7-11.9 4.4L0 169v18.7l124.8 55.7c0.7 9.2 8.4 16.5 17.8 16.5 9.9 0 17.9-7.7 17.9-17.9 0-0.7 0-1.3-0.1-1.9l115.7-92.7c2.3 1 4.8 1.6 7.4 1.6 0.4 0 0.8 0 1.3-0.1l123.9 169.7c-0.7 2-1.1 4.1-1.1 6.3 0 9.9 8 17.9 17.9 17.9 9.9 0 17.9-7.7 17.9-17.9 0-2.8-0.6-5.4-1.7-7.7L565.8 35.8c0.2 0 0.3 0 0.5 0 3.3 0 6.4-0.9 9-2.4L691.8 125.2c-0.2 1.1-0.3 2.2-0.3 3.4 0 9.9 8 17.9 17.9 17.9 6.7 0 12.6-3.6 15.6-9l125.4-4.5 0-16L725.9 121.4zM142.6 249.5c-4.2 0-7.7-3.4-7.7-7.7 0-4.2 3.4-7.7 7.7-7.7 4.2 0 7.7 3.4 7.7 7.7C150.3 246.1 146.9 249.5 142.6 249.5zM283.5 138.6c-4.2 0-7.7-3.4-7.7-7.7 0-4.2 3.4-7.7 7.7-7.7s7.7 3.4 7.7 7.7C291.2 135.2 287.8 138.6 283.5 138.6zM425.4 332.5c-4.2 0-7.7-3.4-7.7-7.7 0-4.2 3.4-7.7 7.7-7.7 4.2 0 7.7 3.4 7.7 7.7C433.1 329 429.7 332.5 425.4 332.5zM566.3 25.4c-4.2 0-7.7-3.4-7.7-7.7 0-4.2 3.4-7.7 7.7-7.7 4.2 0 7.7 3.4 7.7 7.7C574 21.9 570.5 25.4 566.3 25.4zM709.4 136.1c-4.2 0-7.7-3.4-7.7-7.7 0-4.2 3.4-7.7 7.7-7.7s7.7 3.4 7.7 7.7C717 132.6 713.6 136.1 709.4 136.1z"/><rect x="0" y="609.4" fill="#F47A37" width="850.4" height="14.2"/><g enable-background="new    "><path fill="#F47A37" d="M94.2 673.1h12.9v91.8H94.2V673.1zM120.4 673.1h13.9l22.8 64.9c1.7 4.9 3.5 12.6 3.5 12.6h0.3c0 0 1.8-7.7 3.5-12.6l23-64.9h13.7l-33.8 91.8h-12.9L120.4 673.1z"/></g><g enable-background="new"><path fill="#F47A37" d="M384.5 673.1h13.9l22.8 64.9c1.7 4.9 3.5 12.6 3.5 12.6h0.3c0 0 1.8-7.7 3.5-12.6l23-64.9h13.7l-33.8 91.8h-12.9L384.5 673.1z"/></g><g enable-background="new"><path fill="#F47A37" d="M643.5 673.1h13.9l22.8 64.9c1.7 4.9 3.5 12.6 3.5 12.6h0.3c0 0 1.8-7.7 3.5-12.6l23-64.9h13.7l-33.8 91.8h-12.9L643.5 673.1zM737.4 673.1h12.9v91.8h-12.9V673.1z"/></g><path fill="#005AAB" d="M0 347l0 16 125.4 4.5c3.1 5.5 8.9 9 15.6 9 9.9 0 17.9-8 17.9-17.9 0-1.2-0.1-2.3-0.3-3.4l116.4-91.8c2.7 1.5 5.7 2.4 9 2.4 0.2 0 0.3 0 0.5 0l124.2 281.5c-1.1 2.3-1.7 4.9-1.7 7.7 0 10.2 8 17.9 17.9 17.9 9.9 0 17.9-8 17.9-17.9 0-2.2-0.4-4.3-1.1-6.3l123.9-169.7c0.4 0 0.8 0.1 1.3 0.1 2.7 0 5.2-0.6 7.4-1.6l115.7 92.7c-0.1 0.6-0.1 1.3-0.1 1.9 0 10.2 8 17.9 17.9 17.9 9.4 0 17.1-7.3 17.8-16.5l124.8-55.7v-18.7l-130.7 59.5c-3.1-2.7-7.2-4.4-11.9-4.4 -3.4 0-6.5 0.9-9.2 2.4L584.4 365.1c0.3-1.2 0.4-2.5 0.4-3.8 0-9.9-7.6-17.9-17.9-17.9 -10.1 0-17.9 7.7-17.9 17.9 0 3.6 1 6.9 2.8 9.7l-121.8 166.9c-1.6-0.4-3.2-0.7-5-0.7 -1.1 0-2.1 0.1-3.1 0.3l-123.1-279.1c2.1-2.9 3.3-6.5 3.3-10.3 0-9.9-7.6-17.9-17.9-17.9 -10.1 0-17.9 7.7-17.9 17.9 0 0.7 0 1.4 0.1 2l-117.4 92.5c-2.4-1.1-5-1.8-7.9-1.8 -7.6 0-13.8 4.3-16.5 10.7L0 347zM700.1 472c0-4.2 3.4-7.7 7.7-7.7s7.7 3.4 7.7 7.7c0 4.2-3.4 7.7-7.7 7.7C703.5 479.6 700.1 476.2 700.1 472zM559.2 361.1c0-4.2 3.4-7.7 7.7-7.7 4.2 0 7.7 3.4 7.7 7.7 0 4.2-3.4 7.7-7.7 7.7C562.6 368.8 559.2 365.3 559.2 361.1zM417.3 554.9c0-4.2 3.4-7.7 7.7-7.7 4.2 0 7.7 3.4 7.7 7.7 0 4.2-3.4 7.7-7.7 7.7S417.3 559.2 417.3 554.9zM276.4 247.8c0-4.2 3.4-7.7 7.7-7.7 4.2 0 7.7 3.4 7.7 7.7 0 4.2-3.4 7.7-7.7 7.7C279.9 255.5 276.4 252.1 276.4 247.8zM133.4 358.5c0-4.2 3.4-7.7 7.7-7.7 4.2 0 7.7 3.4 7.7 7.7 0 4.2-3.4 7.7-7.7 7.7C136.8 366.2 133.4 362.8 133.4 358.5z"/></svg>