<svg xmlns="http://www.w3.org/2000/svg" version="1.1" x="0" y="0" width="850.4" height="850.4" viewBox="0 0 850.4 850.4" enable-background="new 0 0 850.391 850.39" xml:space="preserve"><path fill="#F47A37" d="M15.6 330.2h201.7v520.3H15.6V330.2zM238.6 0h201.7v850.5H238.6V0zM461.6 181.6H674v668.9H461.6V181.6z"/><path fill="none" d="M573.5 651.8c-4.2 0-7.7-3.4-7.7-7.7 0-4.2 3.4-7.7 7.7-7.7 4.2 0 7.7 3.4 7.7 7.7C581.2 648.4 577.7 651.8 573.5 651.8z"/><path fill="#005AAB" d="M589 639.8c0.3 1.4 0.5 2.8 0.5 4.3 0 9.9-8 17.9-17.9 17.9 -9.9 0-17.9-8-17.9-17.9 0-5.6 2.6-10.6 6.6-13.9l-210.1-407.2c-1.7 0.5-3.4 0.8-5.3 0.8 -1.4 0-2.8-0.2-4.2-0.5L133.1 523.1c2.7 3.1 4.4 7.2 4.4 11.7 0 9.9-8 17.9-17.9 17.9 -5.3 0-10.1-2.4-13.4-6.1L0 599.3V586.8l101.9-49.3c-0.1-0.9-0.2-1.7-0.2-2.6 0-9.9 8-17.9 17.9-17.9 2.1 0 4 0.4 5.9 1L332.3 218.5c-3.2-3.2-5.2-7.7-5.2-12.6 0-9.9 8-17.9 17.9-17.9 9.9 0 17.9 8 17.9 17.9 0 5.3-2.3 10.1-6 13.4l211.3 407.3c1.1-0.2 2.3-0.3 3.5-0.3 5.5 0 10.3 2.4 13.6 6.3l105-51.7 0 12.5L589 639.8zM119.6 527.2c-4.2 0-7.7 3.4-7.7 7.7 0 4.2 3.4 7.7 7.7 7.7s7.7-3.4 7.7-7.7C127.3 530.6 123.9 527.2 119.6 527.2zM345 198.2c-4.2 0-7.7 3.4-7.7 7.7 0 4.2 3.4 7.7 7.7 7.7 4.2 0 7.7-3.4 7.7-7.7C352.7 201.6 349.2 198.2 345 198.2zM571.6 636.4c-4.2 0-7.7 3.4-7.7 7.7 0 4.2 3.4 7.7 7.7 7.7s7.7-3.4 7.7-7.7C579.3 639.9 575.8 636.4 571.6 636.4z"/><rect x="677.4" y="558.4" fill="none" width="173" height="156"/><g enable-background="new    "><path fill="#005AAB" d="M711.6 576.1c0-10.5 8.7-19.2 19.6-19.2 10.9 0 19.8 8.7 19.8 19.2 0 10.7-8.8 19.2-19.8 19.2C720.3 595.4 711.6 586.8 711.6 576.1zM740.8 576.1c0-5.3-4.2-9.8-9.6-9.8 -5.5 0-9.6 4.4-9.6 9.8s4.2 9.6 9.6 9.6C736.6 585.7 740.8 581.5 740.8 576.1zM809.4 556.9c22.1 0 33.4 12.1 33.4 12.1l-6.4 9.6c0 0-10.7-10-26.5-10 -20.5 0-33.9 15.6-33.9 35.1 0 19.6 13.7 36.3 34.1 36.3 17.3 0 28.3-12 28.3-12l6.9 9.2c0 0-12.6 14.6-35.6 14.6 -27.6 0-46.9-21.1-46.9-48C762.8 577.2 782.8 556.9 809.4 556.9z"/></g></svg>