<?xml version="1.0" encoding="utf-8"?>
<!-- Generator: Adobe Illustrator 16.0.0, SVG Export Plug-In . SVG Version: 6.00 Build 0)  -->
<!DOCTYPE svg PUBLIC "-//W3C//DTD SVG 1.1//EN" "http://www.w3.org/Graphics/SVG/1.1/DTD/svg11.dtd">
<svg version="1.1" id="Layer_1" xmlns="http://www.w3.org/2000/svg" xmlns:xlink="http://www.w3.org/1999/xlink" x="0px" y="0px"
	 width="850.39px" height="850.39px" viewBox="0 0 850.39 850.39" enable-background="new 0 0 850.39 850.39" xml:space="preserve">
<path d="M795.225,424.558
	c0-115.304-52.775-218.251-135.615-285.916c0,0,47.668-6.457,47.93-13.503C707.807,117.921,565.5,95.5,565.5,95.5
	s46.941,137.034,51.814,135.495c7.593-2.396,7.025-48.683,7.025-48.683c71.262,56.795,113.882,142.038,113.882,240.246
	c0,121.028-69.722,225.843-170.722,276.896v65.993C701.5,709.938,795.225,578.22,795.225,424.558z"/>
<path d="M324.952,538.719c0,0,43.374,43.951,104.096,43.951
		c38.171,0,70.554-21.398,70.554-60.145c0-84.432-200.094-71.133-200.094-194.89c0-56.097,43.373-102.94,107.566-112.193v-54.361
		h41.061v53.783c64.771,4.626,98.89,39.903,98.89,39.903l-26.023,47.422c0,0-37.592-35.277-89.638-35.277
		c-43.953,0-74.024,27.18-74.024,59.565c0,80.965,200.094,64.194,200.094,194.313c0,57.832-41.061,105.83-109.299,113.926v53.207
		h-41.061v-53.207c-74.025-7.518-114.507-52.627-114.507-52.627L324.952,538.719z"/>
<path d="M56.638,422.389
	c0,115.305,52.707,218.252,135.546,285.916c0,0-47.702,6.457-47.964,13.504c-0.268,7.217,142.022,29.638,142.022,29.638
	s-46.95-137.034-51.823-135.495c-7.593,2.396-7.03,48.684-7.03,48.684c-71.261-56.795-113.746-142.037-113.746-240.246
	c0-121.027,69.857-225.843,170.857-276.896V81.5C150.5,137.008,56.638,268.727,56.638,422.389z"/>
</svg>
