<?xml version="1.0" encoding="utf-8"?>
<!-- Generator: Adobe Illustrator 16.0.0, SVG Export Plug-In . SVG Version: 6.00 Build 0)  -->
<!DOCTYPE svg PUBLIC "-//W3C//DTD SVG 1.1//EN" "http://www.w3.org/Graphics/SVG/1.1/DTD/svg11.dtd">
<svg version="1.1" id="Layer_1" xmlns="http://www.w3.org/2000/svg" xmlns:xlink="http://www.w3.org/1999/xlink" x="0px" y="0px"
	 width="850.39px" height="850.39px" viewBox="0 0 850.39 850.39" enable-background="new 0 0 850.39 850.39" xml:space="preserve">
<g>
	<path d="M624.727,658.361c0.121-0.09,0.297-0.06,0.394,0.069
		c0.096,0.129,0.075,0.307-0.046,0.397c-0.122,0.09-0.298,0.06-0.395-0.069C624.584,658.63,624.604,658.452,624.727,658.361z"/>
</g>
<g>
	<path d="M426.697,340.658c46.966,0,85.039,38.073,85.039,85.04
		c0,46.966-38.073,85.039-85.039,85.039c-46.966,0-85.04-38.073-85.04-85.039C341.658,378.731,379.731,340.658,426.697,340.658z"/>
	<path d="M511.357,540.208c0,0,57.448-39.396,57.26-114.511
		c-0.188-75.115-57.26-113.599-57.26-113.599l43.802-38.527c0,0,71.138,54.496,71.138,152.126
		c0,97.629-71.927,153.395-71.927,153.395L511.357,540.208z"/>
	<path d="M576.237,254.042l41.392-37.44c0,0,92.139,76.142,92.139,209.096
		c0,132.953-92.837,210.339-92.837,210.339l-41.397-37.427c0,0,79.934-62.566,78.935-172.912
		C653.469,315.351,576.237,254.042,576.237,254.042z"/>
	<path d="M639.422,197.603l41.703-37.945
		c0,0,114.076,94.973,114.076,266.04c0,171.066-114.921,267.985-114.921,267.985l-42.052-38.118c0,0,101.682-85.46,100.98-229.867
		C738.508,281.29,639.422,197.603,639.422,197.603z"/>
	<path d="M511.357,312.099l43.802-38.527"/>
	<path d="M617.629,216.602c0,0,92.139,76.142,92.139,209.096"/>
	<path d="M639.422,197.603l41.703-37.945"/>
	<path d="M341.833,539.233c0,0-57.447-39.397-57.259-114.512
		s57.259-113.598,57.259-113.598 M341.833,311.124l-43.801-38.527c0,0-71.138,54.496-71.138,152.125
		c0,97.63,71.927,153.396,71.927,153.396l43.012-38.884"/>
	<path d="M276.953,253.066l-41.391-37.44c0,0-92.139,76.142-92.139,209.095
		s92.836,210.339,92.836,210.339l41.398-37.427c0,0-79.934-62.565-78.935-172.912C199.722,314.375,276.953,253.066,276.953,253.066z
		"/>
	<path d="M213.77,196.628l-41.704-37.945
		c0,0-114.076,94.973-114.076,266.039s114.92,267.985,114.92,267.985l42.051-38.118c0,0-101.681-85.46-100.98-229.867
		S213.77,196.628,213.77,196.628z"/>
	<path d="M341.833,311.124l-43.801-38.527"/>
	<path d="M235.562,215.626c0,0-92.139,76.142-92.139,209.095"/>
	<path d="M213.77,196.628l-41.704-37.945"/>
</g>
</svg>
