<?xml version="1.0" encoding="utf-8"?>
<!-- Generator: Adobe Illustrator 16.0.0, SVG Export Plug-In . SVG Version: 6.00 Build 0)  -->
<!DOCTYPE svg PUBLIC "-//W3C//DTD SVG 1.1//EN" "http://www.w3.org/Graphics/SVG/1.1/DTD/svg11.dtd">
<svg version="1.1" id="Layer_1" xmlns="http://www.w3.org/2000/svg" xmlns:xlink="http://www.w3.org/1999/xlink" x="0px" y="0px"
	 width="850.39px" height="850.39px" viewBox="0 0 850.39 850.39" enable-background="new 0 0 850.39 850.39" xml:space="preserve">
<g>
	<path d="M570.402,57.743c-122.462,0-221.737,99.275-221.737,221.738
		c0,42.179,11.779,81.606,32.224,115.175c-0.068-0.015-0.133-0.03-0.202-0.044c-0.444,0-326.314,342.817-326.314,342.817
		l57.371,56.655c0,0,51.932-48.686,115.693-108.301C327.871,591.881,457,470.861,457,470.275c0-0.001,0-0.003,0-0.004
		c33,19.65,71.929,30.946,113.214,30.946c122.463,0,221.833-99.274,221.833-221.737C792.047,157.018,692.865,57.743,570.402,57.743z
		 M569.104,446.614c-92.318,0-167.157-74.838-167.157-167.156c0-3.988,6.25-167.156,167.157-167.156
		c92.317,0,167.155,74.838,167.155,167.156C736.259,371.776,661.421,446.614,569.104,446.614z"/>
	<path d="M430.613,279.473c0-3.332,5.222-139.655,139.655-139.655
		c-0.05,0.021-0.156,28,0.124,27.875c-107.299,0-113.464,108.85-113.464,111.509C448.714,279.469,436.935,279.469,430.613,279.473z"
		/>
</g>
</svg>
