<?xml version="1.0" encoding="utf-8"?>
<!-- Generator: Adobe Illustrator 16.0.0, SVG Export Plug-In . SVG Version: 6.00 Build 0)  -->
<!DOCTYPE svg PUBLIC "-//W3C//DTD SVG 1.1//EN" "http://www.w3.org/Graphics/SVG/1.1/DTD/svg11.dtd">
<svg version="1.1" id="Layer_1" xmlns="http://www.w3.org/2000/svg" xmlns:xlink="http://www.w3.org/1999/xlink" x="0px" y="0px"
	 width="850.39px" height="850.39px" viewBox="0 0 850.39 850.39" enable-background="new 0 0 850.39 850.39" xml:space="preserve">
<g>
	<path d="M771.048,649.951c-26.202-26.5-45.36-63.457-67.435-111.806
		c-52.768-115.583-46.268-343.521-197.731-396.788c0-82.98-77.145-84.484-80.882-84.517V57c0,0-0.03,0-0.077,0S425,57,425,57v-0.159
		c-4,0.032-80.959,1.617-80.959,84.597c-151.464,53.268-145.002,281.165-197.771,396.748
		c-22.073,48.349-41.251,85.285-67.453,111.785C44.472,684.707,67.979,708,79,708c45.774,0,172.582,0,263.964,0
		c0,54.931,41.036,83.667,82.036,85.137c40.948-1.47,81.881-30.206,81.881-85.137c91.383,0,218.191,0,263.965,0
		C781.867,708,805.394,684.688,771.048,649.951z M425.5,176.5c-21.539,0-39-17.461-39-39s17.461-39,39-39s39,17.461,39,39
		S447.039,176.5,425.5,176.5z"/>
	<path d="M425,793.144v-0.003C424.974,793.141,425,793.143,425,793.144z"/>
</g>
</svg>
