<?xml version="1.0" encoding="utf-8"?>
<!-- Generator: Adobe Illustrator 16.0.0, SVG Export Plug-In . SVG Version: 6.00 Build 0)  -->
<!DOCTYPE svg PUBLIC "-//W3C//DTD SVG 1.1//EN" "http://www.w3.org/Graphics/SVG/1.1/DTD/svg11.dtd">
<svg version="1.1" id="Layer_1" xmlns="http://www.w3.org/2000/svg" xmlns:xlink="http://www.w3.org/1999/xlink" x="0px" y="0px"
	 width="850.39px" height="850.39px" viewBox="0 0 850.39 850.39" enable-background="new 0 0 850.39 850.39" xml:space="preserve">
<g>
	<path d="M794.948,376.622c0,65.626-50.33,119.488-114.495,125.116
		c-0.645,0.304-1.362,0.478-2.122,0.478h-7.616c-0.46,0.005-0.917,0.018-1.377,0.018c-0.461,0-0.918-0.013-1.377-0.018H189.768
		c-0.304,0-0.601-0.031-0.89-0.083c-1.672,0.065-3.352,0.101-5.04,0.101c-69.373,0-125.611-56.238-125.611-125.611
		c0-69.373,56.238-125.611,125.611-125.611c0.312,0,0.623,0.009,0.935,0.012c-0.001-0.197-0.004-0.393-0.004-0.589
		c0-105.84,85.801-191.641,191.641-191.641c77.181,0,143.702,45.627,174.07,111.377c11.021-4.836,23.198-7.525,36.005-7.525
		c49.156,0,89.07,39.543,89.684,88.554C742.365,254.746,794.948,309.541,794.948,376.622z"/>
	<path d="M624.727,658.361c0.121-0.09,0.297-0.06,0.394,0.069
		c0.096,0.129,0.075,0.307-0.046,0.397c-0.122,0.09-0.298,0.06-0.395-0.069C624.584,658.63,624.604,658.452,624.727,658.361z"/>
	<path d="M426.25,529.672l-53.188,124.656h53.188L383.122,794
		l179.3-169.172h-56.844l112.859-95.156H426.25z"/>
</g>
</svg>
