<svg xmlns="http://www.w3.org/2000/svg" xmlns:xlink="http://www.w3.org/1999/xlink" version="1.1" id="Layer_1" x="0px" y="0px" width="623.62px" height="850.39px" viewBox="0 0 623.62 850.39" enable-background="new 0 0 623.62 850.39" xml:space="preserve">
  <path fill="#F47A37" d="M290 0C188.379 0 106 82.379 106 184s82.379 184 184 184c101.62 0 184-82.379 184-184S391.62 0 290 0zM290 299.25c-63.651 0-115.25-51.599-115.25-115.25S226.349 68.75 290 68.75c63.65 0 115.25 51.599 115.25 115.25S353.65 299.25 290 299.25z"/>
  <path fill="#005AAB" d="M572.828 462.89c-44.677-1.925-36.443 21.968-44.717 21.968 -9.311 0 0-51.562-44.723-51.621 -45.175-0.061-34.668 29.422-45.175 29.422 -7.382 0 0-54.691-45.045-54.691 -43.944 0-26.669 37.783-44.234 36.615C344.93 444.315 341.498 275.315 329 154.5c-3.75-36.25-71.25-37.5-78.75 3.75 -3.334 18.336-3.881 376.494-16.901 418.82C213.002 643.209 92.47 453.09 0 592.107c197.209 73.078 133.249 161.301 269.129 255.742 0.886-0.795 312.442 0.104 312.442 0.104S660.238 466.652 572.828 462.89z"/>
</svg>
