<svg xmlns="http://www.w3.org/2000/svg" version="1.1" x="0" y="0" width="850.4" height="850.4" viewBox="0 0 850.4 850.4" enable-background="new 0 0 850.391 850.39" xml:space="preserve"><path fill="#005AAB" d="M583.1 463.2c-44.8-1.9-36.5 22-44.8 22 -9.3 0 0-51.7-44.9-51.8 -45.3-0.1-34.8 29.5-45.3 29.5 -7.4 0 0-54.8-45.2-54.8 -44.1 0-35.7 36.7-44.4 36.7 -4 0-6.3-36.1-7.6-81.5 77.2-21.5 133.9-92.3 133.9-176.4 0-101.1-82-183.1-183.1-183.1S118.8 85.8 118.8 187c0 86.7 60.3 159.4 141.3 178.3 -0.7 81.7-4.4 170-17.4 212.5 -20.4 66.3-141.3-124.3-234 15.1 197.8 73.3 133.6 161.8 269.9 256.5 0.9-0.8 313.3 0.1 313.3 0.1S670.8 467 583.1 463.2zM189.6 186.1c0-61.5 49.9-111.4 111.4-111.4 61.5 0 111.4 49.9 111.4 111.4 0 44.1-25.6 82.2-62.7 100.2 -0.3-35.9-0.3-68.9-0.3-87.2 0-64.2-89.9-65.8-90.1 7.4 0 17.6 0.5 47.5 0.7 83.2C218.8 273.4 189.6 233.2 189.6 186.1z"/></svg>