<svg xmlns="http://www.w3.org/2000/svg" version="1.1" x="0" y="0" width="850.4" height="850.4" viewBox="0 0 850.4 850.4" enable-background="new 0 0 850.391 850.39" xml:space="preserve"><text transform="matrix(1 0 0 1 71.3386 510.0405)" fill="#005AAB" font-family="'MuseoSans-500'" font-size="130">A</text><text transform="matrix(1 0 0 1 695.0959 149.8755)" fill="#005AAB" font-family="'MuseoSans-500'" font-size="130">B</text><path fill="#005AAB" d="M850.4 85V28.3 0h-28.3 -793.7H0v28.3 425.2 28.3 113.4 28.3h28.3H396.9h28.3 396.9 28.3v-28.3V297.6v-28.3V113.4h0V85H850.4zM396.9 269.3v28.3 126.6c-7.2 0.1-141.4 3.8-141.4 141.7H396.9v29.3H28.3V481.9h28.3v-28.3H28.3V198.4h139.6c0 0 0-140.2-139.6-141.7v-28.4H396.9V269.3zM822 595.3H793.7V453.5c0 0-141.7 0-141.7 141.7H425.2V453.5h0V297.6h0 396.9V595.3zM822 85H793.7v28.3h28.3v155.9H590.8c-0.5-139.7-137.1-139.7-137.1-139.7l-0.4 139.7h-28.1V28.3h396.9V85z"/></svg>