<svg xmlns="http://www.w3.org/2000/svg" version="1.1" x="0" y="0" width="850.4" height="850.4" viewBox="0 0 850.4 850.4" enable-background="new 0 0 850.391 850.39" xml:space="preserve"><path fill="#005AAB" d="M652 263.4V141.7h-85.3l0 53.1L325.8-0.9 -0.6 425.2h57.3v425.6H793.7V425.2l56.7 0.1L652 263.4zM751.2 807.9H99.2V372.3L332.9 67.8l418.3 332.7V807.9z"/><polygon fill="#005AAB" points="722.8 544.7 652 496.1 652 524.4 349.6 524.4 349.6 193.8 377.9 193.8 329.3 127.6 278.7 193.8 307 193.8 307 220.7 307 220.7 307 524.4 198.4 524.4 198.4 496.1 127.6 544.7 198.4 595.3 198.4 566.9 307 566.9 307 712.3 278.7 712.3 329.2 778.7 377.9 712.3 349.5 712.3 349.5 684.1 349.6 684.1 349.6 566.9 652 566.9 652 595.3 "/></svg>