<svg xmlns="http://www.w3.org/2000/svg" version="1.1" x="0" y="0" width="850.4" height="850.4" viewBox="0 0 850.4 850.4" enable-background="new 0 0 850.391 850.39" xml:space="preserve"><path fill="#005AAB" d="M725.9 303.7c-2.7-6.4-8.9-10.7-16.5-10.7 -2.9 0-5.5 0.6-7.9 1.8l-117.4-92.5c0.1-0.7 0.1-1.4 0.1-2 0-10.2-7.8-17.9-17.9-17.9 -10.3 0-17.9 8-17.9 17.9 0 3.8 1.2 7.4 3.3 10.3l-123.1 279.1c-1-0.2-2-0.3-3.1-0.3 -1.7 0-3.4 0.2-5 0.7l-121.8-166.9c1.8-2.8 2.8-6.1 2.8-9.7 0-10.2-7.8-17.9-17.9-17.9 -10.3 0-17.9 8-17.9 17.9 0 1.3 0.2 2.6 0.4 3.8l-114.3 91.5c-2.7-1.5-5.8-2.4-9.2-2.4 -4.7 0-8.8 1.7-11.9 4.4L0 351.4v18.7L124.8 425.8c0.7 9.2 8.4 16.5 17.8 16.5 9.9 0 17.9-7.7 17.9-17.9 0-0.7 0-1.3-0.1-1.9l115.7-92.7c2.3 1 4.8 1.6 7.4 1.6 0.4 0 0.8 0 1.3-0.1l123.9 169.7c-0.7 2-1.1 4.1-1.1 6.3 0 9.9 8 17.9 17.9 17.9 9.9 0 17.9-7.7 17.9-17.9 0-2.8-0.6-5.4-1.7-7.7l124.2-281.5c0.2 0 0.3 0 0.5 0 3.3 0 6.4-0.9 9-2.4l116.4 91.8c-0.2 1.1-0.3 2.2-0.3 3.4 0 9.9 8 17.9 17.9 17.9 6.7 0 12.6-3.6 15.6-9l125.4-4.5 0-16L725.9 303.7zM142.6 431.8c-4.2 0-7.7-3.4-7.7-7.7 0-4.2 3.4-7.7 7.7-7.7 4.2 0 7.7 3.4 7.7 7.7C150.3 428.4 146.9 431.8 142.6 431.8zM283.5 321c-4.2 0-7.7-3.4-7.7-7.7 0-4.2 3.4-7.7 7.7-7.7s7.7 3.4 7.7 7.7C291.2 317.5 287.8 321 283.5 321zM425.4 514.8c-4.2 0-7.7-3.4-7.7-7.7 0-4.2 3.4-7.7 7.7-7.7 4.2 0 7.7 3.4 7.7 7.7C433.1 511.4 429.7 514.8 425.4 514.8zM566.3 207.7c-4.2 0-7.7-3.4-7.7-7.7 0-4.2 3.4-7.7 7.7-7.7 4.2 0 7.7 3.4 7.7 7.7C574 204.3 570.5 207.7 566.3 207.7zM709.4 318.4c-4.2 0-7.7-3.4-7.7-7.7 0-4.2 3.4-7.7 7.7-7.7s7.7 3.4 7.7 7.7C717 315 713.6 318.4 709.4 318.4z"/><rect x="0" y="609.4" fill="#005AAB" width="850.4" height="14.2"/><text transform="matrix(1 0 0 1 81.7542 764.9058)" fill="#005AAB" font-family="'MuseoSans-500'" font-size="130">IV</text><text transform="matrix(1 0 0 1 365.7542 764.9058)" fill="#005AAB" font-family="'MuseoSans-500'" font-size="130">VI</text><text transform="matrix(1 0 0 1 609.7542 764.9058)" fill="#005AAB" font-family="'MuseoSans-500'" font-size="130">VIII</text></svg>