<svg xmlns="http://www.w3.org/2000/svg" version="1.1" x="0" y="0" width="850.4" height="850.4" viewBox="0 0 850.4 850.4" enable-background="new 0 0 850.39 850.39" xml:space="preserve"><path fill="#F47A37" d="M15.6 330.2h201.7v520.3H15.6V330.2zM238.6 0h201.7v850.5H238.6V0zM461.6 181.6h212.4v668.9H461.6V181.6z"/><path fill="none" d="M573.5 651.8c-4.2 0-7.7-3.4-7.7-7.7 0-4.2 3.4-7.7 7.7-7.7 4.2 0 7.7 3.4 7.7 7.7C581.2 648.4 577.7 651.8 573.5 651.8z"/><path fill="#005AAB" d="M589 639.8c0.3 1.4 0.5 2.8 0.5 4.3 0 9.9-8 17.9-17.9 17.9 -9.9 0-17.9-8-17.9-17.9 0-5.6 2.6-10.6 6.6-13.9l-210.1-407.3c-1.7 0.5-3.4 0.8-5.3 0.8 -1.4 0-2.8-0.2-4.2-0.5l-207.7 299.9c2.7 3.1 4.4 7.2 4.4 11.7 0 9.9-8 17.9-17.9 17.9 -5.3 0-10.1-2.4-13.4-6.1L0 599.3v-12.5l101.9-49.3c-0.1-0.9-0.2-1.7-0.2-2.6 0-9.9 8-17.9 17.9-17.9 2.1 0 4 0.4 5.9 1L332.3 218.5c-3.2-3.2-5.2-7.7-5.2-12.6 0-9.9 8-17.9 17.9-17.9 9.9 0 17.9 8 17.9 17.9 0 5.3-2.3 10.1-6 13.4l211.3 407.3c1.1-0.2 2.3-0.3 3.5-0.3 5.5 0 10.3 2.4 13.6 6.3l105-51.7 0 12.5L589 639.8zM119.6 527.2c-4.2 0-7.7 3.4-7.7 7.7 0 4.2 3.4 7.7 7.7 7.7 4.2 0 7.7-3.4 7.7-7.7C127.3 530.6 123.9 527.2 119.6 527.2zM345 198.2c-4.2 0-7.7 3.4-7.7 7.7s3.4 7.7 7.7 7.7c4.2 0 7.7-3.4 7.7-7.7C352.7 201.6 349.2 198.2 345 198.2zM571.6 636.4c-4.2 0-7.7 3.4-7.7 7.7 0 4.2 3.4 7.7 7.7 7.7 4.2 0 7.7-3.4 7.7-7.7C579.3 639.9 575.8 636.4 571.6 636.4z"/><path fill="#005AAB" d="M711.1 598.9h10.1v-29.6c0-1.4 0.1-2.9 0.1-2.9h-0.1c0 0-0.5 1-2.2 2.7l-4.3 4.2 -3.9-4 11-10.7h5.7v40.3h10v5.6h-26.4V598.9zM743.1 583.7c0-11.8 6.4-25.8 20.7-25.8 5.4 0 8.9 1.9 8.9 1.9l-2.1 5.5c0 0-2.9-1.5-6.6-1.5 -8.4 0-12.8 7.8-13.8 15.4h0.1c2-2.6 6.1-4.4 10.1-4.4 8.7 0 14.5 6.6 14.5 15.1 0 9-6.2 15.3-14.8 15.3C750.4 605.3 743.1 596.7 743.1 583.7zM768.6 590c0-5.6-3.6-9.7-9.4-9.7 -5.2 0-9.4 3.1-9.4 6.4 0 6 4.5 12.7 10.3 12.7C765.4 599.4 768.6 595.3 768.6 590zM781 567.5c0-5.3 4.4-9.6 9.8-9.6s9.9 4.4 9.9 9.6c0 5.3-4.4 9.6-9.9 9.6S781 572.8 781 567.5zM795.6 567.5c0-2.7-2.1-4.9-4.8-4.9 -2.7 0-4.8 2.2-4.8 4.9s2.1 4.8 4.8 4.8C793.5 572.3 795.6 570.1 795.6 567.5zM829.9 557.9c11.1 0 16.7 6 16.7 6l-3.2 4.8c0 0-5.3-5-13.3-5 -10.3 0-17 7.8-17 17.6 0 9.8 6.8 18.1 17 18.1 8.6 0 14.2-6 14.2-6l3.4 4.6c0 0-6.3 7.3-17.8 7.3 -13.8 0-23.5-10.5-23.5-24C806.6 568 816.6 557.9 829.9 557.9z"/></svg>