<svg xmlns="http://www.w3.org/2000/svg" version="1.1" x="0" y="0" width="850.4" height="850.4" viewBox="0 0 850.4 850.4" enable-background="new 0 0 850.391 850.39" xml:space="preserve"><path fill="#F47A37" d="M15.6 330.2h201.7v520.3H15.6V330.2zM238.6 0h201.7v850.5H238.6V0zM461.6 181.6H674v668.9H461.6V181.6z"/><path fill="none" d="M573.5 651.8c-4.2 0-7.7-3.4-7.7-7.7 0-4.2 3.4-7.7 7.7-7.7 4.2 0 7.7 3.4 7.7 7.7C581.2 648.4 577.7 651.8 573.5 651.8z"/><path fill="#005AAB" d="M589 639.8c0.3 1.4 0.5 2.8 0.5 4.3 0 9.9-8 17.9-17.9 17.9 -9.9 0-17.9-8-17.9-17.9 0-5.6 2.6-10.6 6.6-13.9l-210.1-407.2c-1.7 0.5-3.4 0.8-5.3 0.8 -1.4 0-2.8-0.2-4.2-0.5l-207.7 299.9c2.7 3.1 4.4 7.2 4.4 11.7 0 9.9-8 17.9-17.9 17.9 -5.3 0-10.1-2.4-13.4-6.1L0 599.3V586.8l101.9-49.3c-0.1-0.9-0.2-1.7-0.2-2.6 0-9.9 8-17.9 17.9-17.9 2.1 0 4 0.4 5.9 1L332.3 218.5c-3.2-3.2-5.2-7.7-5.2-12.6 0-9.9 8-17.9 17.9-17.9s17.9 8 17.9 17.9c0 5.3-2.3 10.1-6 13.4l211.3 407.3c1.1-0.2 2.3-0.3 3.5-0.3 5.5 0 10.3 2.4 13.6 6.3l105-51.7 0 12.5L589 639.8zM119.6 527.2c-4.2 0-7.7 3.4-7.7 7.7 0 4.2 3.4 7.7 7.7 7.7 4.2 0 7.7-3.4 7.7-7.7C127.3 530.6 123.9 527.2 119.6 527.2zM345 198.2c-4.2 0-7.7 3.4-7.7 7.7 0 4.2 3.4 7.7 7.7 7.7 4.2 0 7.7-3.4 7.7-7.7C352.7 201.6 349.2 198.2 345 198.2zM571.6 636.4c-4.2 0-7.7 3.4-7.7 7.7 0 4.2 3.4 7.7 7.7 7.7s7.7-3.4 7.7-7.7C579.3 639.9 575.8 636.4 571.6 636.4z"/><rect x="677.4" y="558.4" fill="none" width="173" height="156"/><text transform="matrix(1 0 0 1 705.9636 650.2261)" fill="#005AAB" font-family="'MuseoSans-500'" font-size="130">°C</text></svg>