<svg xmlns="http://www.w3.org/2000/svg" width="502.072" height="150.073"><defs><clipPath id="a"><path d="M0 205.8h521.74V0H0v205.8z"/></clipPath></defs><g clip-path="url(#a)" transform="matrix(1.25 0 0 -1.25 -75.051 203.66)"><path fill="#2b64ab" d="M110.8 96.38c-.94 4.98-3.37 9.18-7.26 12.6-4.16 3.6-8.94 5.42-14.33 5.42-5.3 0-9.87-1.58-13.7-4.7-4.7-3.9-7.33-8.34-7.9-13.32h43.2zm-50.76-3.8c0 8.74 3.07 15.88 9.2 21.4 5.68 5.12 12.26 7.68 19.77 7.68 7.5 0 14.08-2.52 19.67-7.57 6.35-5.75 9.52-13.43 9.52-23.05V89.6H67.6c.02-6 2.47-10.87 7.4-14.62 4.15-3.15 8.75-4.72 13.8-4.72 4.24 0 8.3 1.17 12.24 3.53 3.92 2.35 6.53 5.3 7.83 8.85h7.78c-2.4-6.4-6.35-11.4-11.88-14.94C99.87 64.58 94.4 63 88.4 63c-7.6 0-14.14 2.7-19.67 8.08-5.8 5.66-8.7 12.82-8.7 21.5" class="enectiva-letter"/><path fill="#f47a37" d="M210.4 128.05v24.3h-7.58v-24.28c1.2.12 2.42.18 3.66.18 1.33 0 2.64-.07 3.92-.2"/><path fill="#f47a37" d="M195.25 141.8h-7.58v-18.86c2.4 1.5 4.94 2.7 7.58 3.57v15.3zM225.55 162.93h-7.58v-36.5c2.65-.87 5.18-2.1 7.58-3.63v40.13z"/><path fill="#2b64ab" d="M240.46 92.4c0 8.65 3.07 15.82 9.2 21.48 5.67 5.2 12.2 7.78 19.56 7.78 6.35 0 12-1.4 17-4.2 5.66-3.2 9.72-7.88 12.17-14.02h-8.6c-2.06 3.48-4.83 6.14-8.3 8-3.5 1.83-7.58 2.75-12.3 2.75-6.34 0-11.52-2.27-15.55-6.77-3.75-4.24-5.63-9.25-5.63-15.05 0-6.23 2.1-11.46 6.3-15.73 4.2-4.26 9.43-6.4 15.7-6.4 4.24 0 8.15 1 11.73 2.98 3.58 1.97 6.33 4.43 8.24 7.37h8.4c-3.14-5.94-7-10.36-11.65-13.26-4.62-2.9-10.03-4.35-16.2-4.35-7.9 0-14.8 2.7-20.72 8.1-6.26 5.65-9.38 12.6-9.38 20.87v.4z" class="enectiva-letter"/><path fill="#2b64ab" d="M410.1 93.62c0-6.97 2.23-12.66 6.66-17.1 4.16-4.16 9.15-6.24 14.95-6.24 6.5 0 11.9 2.18 16.2 6.55 4.3 4.37 6.44 9.38 6.44 15.05 0 6.14-2.1 11.4-6.24 15.76-4.17 4.37-9.3 6.55-15.36 6.55-6.42 0-11.92-2.37-16.48-7.08-4.1-4.24-6.15-8.74-6.15-13.5m-7.75-1.75c0 8.8 3.17 16.07 9.5 21.8 5.88 5.32 12.7 7.98 20.48 7.98 4.57 0 8.67-.92 12.3-2.76 4.08-2.13 7.32-5.3 9.7-9.53v10.85h7.38v-56h-7.36V74.9c-2.12-3.82-5.13-6.75-9.06-8.8-3.93-2.05-8.44-3.07-13.56-3.07-7.9 0-14.7 2.6-20.36 7.8-6 5.5-9 12.55-9 21.08"/><path fill="#2b64ab" d="M397.36 120.25l-19.44-46.42-19.3 46.4H317.6V140H310v-19.77h-11.77v-6.76H310V64.24h7.58v49.23h22.64V64.24h7.58v49.23h5.45l20.7-49.23h7.78l23.82 56h-8.2z"/><path fill="#f47a37" d="M347.8 132.4h-7.58v7.6h7.58v-7.6z"/><path fill="#2b64ab" d="M228.3 96.38c-.95 4.98-3.37 9.18-7.25 12.6-4.17 3.6-8.95 5.42-14.34 5.42-5.3 0-9.87-1.58-13.7-4.7-4.7-3.9-7.33-8.34-7.87-13.32h43.2zm-50.76-3.8c0 8.74 3.07 15.88 9.2 21.4 5.68 5.12 12.26 7.68 19.77 7.68 7.5 0 14.08-2.52 19.67-7.57 6.35-5.75 9.52-13.43 9.52-23.05V89.6h-50.57c0-6 2.45-10.87 7.36-14.62 4.16-3.15 8.76-4.72 13.8-4.72 4.25 0 8.3 1.17 12.25 3.53 3.92 2.35 6.53 5.3 7.83 8.85h7.77c-2.38-6.4-6.34-11.4-11.87-14.94-4.9-3.13-10.37-4.7-16.38-4.7-7.58 0-14.13 2.7-19.66 8.08-5.8 5.66-8.7 12.82-8.7 21.5" class="enectiva-letter"/><path fill="#2b64ab" d="M122.94 64.24v56h7.16v-8.4c1.84 3.07 4.37 5.44 7.58 7.1 3.2 1.68 6.6 2.52 10.23 2.52 6.57 0 12.2-2.2 16.9-6.55 5.13-4.76 7.7-11.1 7.7-19.02V64.24h-7.38v31.63c0 5.8-1.8 10.34-5.42 13.6-3.27 3-7.34 4.5-12.18 4.5-4.57 0-8.46-1.42-11.67-4.28-3.55-3.23-5.32-7.53-5.32-12.9V64.22h-7.56z" class="enectiva-letter"/><path fill="#f47a37" d="M210.4 56.62V42.87h-7.58V56.6c1.2-.12 2.42-.18 3.66-.18 1.33 0 2.64.07 3.92.2"/><path fill="#f47a37" d="M195.25 42.87h-7.58v18.86c2.4-1.5 4.94-2.7 7.58-3.57v-15.3zM225.55 42.87h-7.58v15.36c2.65.9 5.18 2.1 7.58 3.64v-19z"/></g></svg>