<?xml version="1.0" encoding="UTF-8" standalone="no"?>
<!-- Created with Inkscape (http://www.inkscape.org/) -->

<svg
   xmlns:dc="http://purl.org/dc/elements/1.1/"
   xmlns:cc="http://creativecommons.org/ns#"
   xmlns:rdf="http://www.w3.org/1999/02/22-rdf-syntax-ns#"
   xmlns:svg="http://www.w3.org/2000/svg"
   xmlns="http://www.w3.org/2000/svg"
   xmlns:sodipodi="http://sodipodi.sourceforge.net/DTD/sodipodi-0.dtd"
   xmlns:inkscape="http://www.inkscape.org/namespaces/inkscape"
   width="502.07224"
   height="150.07338"
   id="svg2"
   version="1.1"
   inkscape:version="0.48.5 r10040"
   sodipodi:docname="logo.svg">
  <defs
     id="defs4">
    <clipPath
       id="clipPath2999"
       clipPathUnits="userSpaceOnUse">
      <path
         id="path3001"
         d="m 0,205.798 521.74,0 L 521.74,0 0,0 0,205.798 z"
         inkscape:connector-curvature="0" />
    </clipPath>
  </defs>
  <sodipodi:namedview
     id="base"
     pagecolor="#ffffff"
     bordercolor="#666666"
     borderopacity="1.0"
     inkscape:pageopacity="0.0"
     inkscape:pageshadow="2"
     inkscape:zoom="1.979899"
     inkscape:cx="293.75465"
     inkscape:cy="176.21119"
     inkscape:document-units="px"
     inkscape:current-layer="g2995"
     showgrid="false"
     inkscape:window-width="1920"
     inkscape:window-height="1054"
     inkscape:window-x="-2"
     inkscape:window-y="-2"
     inkscape:window-maximized="1"
     fit-margin-top="0"
     fit-margin-left="0"
     fit-margin-right="0"
     fit-margin-bottom="0" />
  <metadata
     id="metadata7">
    <rdf:RDF>
      <cc:Work
         rdf:about="">
        <dc:format>image/svg+xml</dc:format>
        <dc:type
           rdf:resource="http://purl.org/dc/dcmitype/StillImage" />
        <dc:title />
      </cc:Work>
    </rdf:RDF>
  </metadata>
  <g
     inkscape:label="Layer 1"
     inkscape:groupmode="layer"
     id="layer1"
     transform="translate(-134.67816,-268.75408)">
    <g
       transform="matrix(1.25,0,0,-1.25,59.626909,472.41433)"
       inkscape:label="Enectiva - logo (vector)"
       id="g2993">
      <g
         id="g2995">
        <g
           clip-path="url(#clipPath2999)"
           id="g2997">
          <g
             transform="translate(110.812,96.3794)"
             id="g3003">
            <path
               id="path3005"
               style="fill:#2b64ab;fill-opacity:1;fill-rule:nonzero;stroke:none"
               d="m 0,0 c -0.957,4.98 -3.378,9.178 -7.269,12.59 -4.161,3.617 -8.94,5.426 -14.33,5.426 -5.323,0 -9.896,-1.571 -13.715,-4.709 C -40.024,9.418 -42.65,4.98 -43.197,0 L 0,0 z m -50.771,-3.789 c 0,8.734 3.069,15.867 9.212,21.394 5.663,5.118 12.249,7.678 19.755,7.678 7.506,0 14.06,-2.525 19.655,-7.576 6.347,-5.73 9.52,-13.406 9.52,-23.031 l 0,-1.432 -50.568,0 c 0,-6.006 2.458,-10.883 7.372,-14.637 4.16,-3.14 8.765,-4.709 13.818,-4.709 4.232,0 8.305,1.176 12.232,3.53 3.924,2.355 6.532,5.308 7.83,8.853 l 7.781,0 c -2.392,-6.414 -6.346,-11.394 -11.875,-14.943 -4.913,-3.139 -10.374,-4.707 -16.378,-4.707 -7.576,0 -14.126,2.695 -19.654,8.084 -5.801,5.666 -8.7,12.83 -8.7,21.496"
               inkscape:connector-curvature="0" />
          </g>
          <g
             transform="translate(210.3965,128.0493)"
             id="g3007">
            <path
               id="path3009"
               style="fill:#f47a37;fill-opacity:1;fill-rule:nonzero;stroke:none"
               d="m 0,0 0,24.315 -7.573,0 0,-24.29 c 1.199,0.114 2.419,0.176 3.657,0.176 C -2.583,0.201 -1.279,0.13 0,0"
               inkscape:connector-curvature="0" />
          </g>
          <g
             transform="translate(195.249,141.7993)"
             id="g3011">
            <path
               id="path3013"
               style="fill:#f47a37;fill-opacity:1;fill-rule:nonzero;stroke:none"
               d="m 0,0 -7.577,0 0,-18.856 c 2.409,1.51 4.937,2.699 7.577,3.565 L 0,0 z"
               inkscape:connector-curvature="0" />
          </g>
          <g
             transform="translate(225.5498,162.9282)"
             id="g3015">
            <path
               id="path3017"
               style="fill:#f47a37;fill-opacity:1;fill-rule:nonzero;stroke:none"
               d="m 0,0 -7.576,0 0,-36.486 c 2.648,-0.885 5.172,-2.102 7.576,-3.64 L 0,0 z"
               inkscape:connector-curvature="0" />
          </g>
          <g
             transform="translate(240.4575,92.3892)"
             id="g3019">
            <path
               id="path3021"
               style="fill:#2b64ab;fill-opacity:1;fill-rule:nonzero;stroke:none"
               d="m 0,0 c 0,8.664 3.069,15.828 9.212,21.494 5.662,5.184 12.18,7.779 19.549,7.779 6.349,0 12.01,-1.398 16.992,-4.196 5.666,-3.208 9.725,-7.884 12.184,-14.024 l -8.604,0 c -2.045,3.48 -4.809,6.14 -8.289,7.986 -3.479,1.842 -7.572,2.762 -12.283,2.762 -6.348,0 -11.533,-2.252 -15.557,-6.755 C 9.45,10.813 7.575,5.797 7.575,0 c 0,-6.215 2.098,-11.449 6.293,-15.715 4.199,-4.267 9.43,-6.396 15.713,-6.396 4.229,0 8.141,0.988 11.721,2.968 3.584,1.977 6.33,4.434 8.24,7.372 l 8.395,0 c -3.127,-5.94 -7.006,-10.358 -11.633,-13.256 -4.619,-2.905 -10.028,-4.352 -16.215,-4.352 -7.889,0 -14.789,2.695 -20.705,8.084 C 3.126,-15.629 0,-8.67 0,-0.41 L 0,0 z"
               inkscape:connector-curvature="0" />
          </g>
          <g
             transform="translate(410.1108,93.6157)"
             id="g3023">
            <path
               id="path3025"
               style="fill:#2b64ab;fill-opacity:1;fill-rule:nonzero;stroke:none"
               d="m 0,0 c 0,-6.961 2.219,-12.658 6.654,-17.096 4.159,-4.162 9.143,-6.242 14.946,-6.242 6.48,0 11.871,2.182 16.17,6.553 4.302,4.365 6.449,9.381 6.449,15.045 0,6.142 -2.086,11.396 -6.242,15.765 -4.161,4.366 -9.28,6.549 -15.352,6.549 -6.418,0 -11.912,-2.354 -16.48,-7.064 C 2.049,9.279 0,4.775 0,0 m -7.775,-1.74 c 0,8.804 3.171,16.07 9.515,21.803 5.869,5.322 12.694,7.984 20.473,7.984 4.566,0 8.664,-0.921 12.283,-2.764 4.092,-2.116 7.332,-5.29 9.723,-9.519 l 0,10.85 7.369,0 0,-55.993 -7.369,0 0,10.645 c -2.115,-3.821 -5.133,-6.752 -9.059,-8.801 -3.926,-2.049 -8.445,-3.07 -13.56,-3.07 -7.922,0 -14.709,2.589 -20.368,7.779 -6.009,5.525 -9.007,12.556 -9.007,21.086"
               inkscape:connector-curvature="0" />
          </g>
          <g
             transform="translate(397.3608,120.2456)"
             id="g3027">
            <path
               id="path3029"
               style="fill:#2b64ab;fill-opacity:1;fill-rule:nonzero;stroke:none"
               d="m 0,0 -19.441,-46.415 -19.293,46.399 -3.702,0 -4.511,0 -2.616,0 -7.578,0 -9.642,0 -13.002,0 0,19.756 -7.57,0 0,-19.756 -11.774,0 0,-6.756 11.774,0 0,-49.237 7.57,0 0,49.237 13.002,0 9.642,0 0,-49.237 7.578,0 0,49.237 5.454,0 20.707,-49.237 7.775,0 L 8.188,-0.016 0,0 z"
               inkscape:connector-curvature="0" />
          </g>
          <path
             id="path3031"
             style="fill:#f47a37;fill-opacity:1;fill-rule:nonzero;stroke:none"
             d="m 347.8,132.411 -7.576,0 0,7.575 7.576,0 0,-7.575 z"
             inkscape:connector-curvature="0" />
          <g
             transform="translate(228.3101,96.3794)"
             id="g3033">
            <path
               id="path3035"
               style="fill:#2b64ab;fill-opacity:1;fill-rule:nonzero;stroke:none"
               d="m 0,0 c -0.957,4.98 -3.376,9.178 -7.265,12.59 -4.164,3.617 -8.941,5.426 -14.334,5.426 -5.321,0 -9.896,-1.571 -13.716,-4.709 C -40.021,9.418 -42.651,4.98 -43.195,0 L 0,0 z m -50.77,-3.789 c 0,8.734 3.069,15.867 9.211,21.394 5.664,5.118 12.251,7.678 19.757,7.678 7.505,0 14.057,-2.525 19.653,-7.576 C 4.2,11.977 7.372,4.301 7.372,-5.324 l 0,-1.432 -50.567,0 c 0,-6.006 2.453,-10.883 7.369,-14.637 4.161,-3.14 8.769,-4.709 13.818,-4.709 4.234,0 8.308,1.176 12.234,3.53 3.923,2.355 6.533,5.308 7.831,8.853 l 7.777,0 c -2.389,-6.414 -6.342,-11.394 -11.874,-14.943 -4.913,-3.139 -10.373,-4.707 -16.378,-4.707 -7.57,0 -14.126,2.695 -19.652,8.084 -5.8,5.666 -8.7,12.83 -8.7,21.496"
               inkscape:connector-curvature="0" />
          </g>
          <g
             transform="translate(122.936,64.2368)"
             id="g3037">
            <path
               id="path3039"
               style="fill:#2b64ab;fill-opacity:1;fill-rule:nonzero;stroke:none"
               d="m 0,0 0,55.993 7.165,0 0,-8.394 c 1.843,3.071 4.367,5.442 7.575,7.114 3.206,1.673 6.617,2.508 10.236,2.508 6.552,0 12.181,-2.186 16.89,-6.551 5.118,-4.777 7.675,-11.125 7.675,-19.037 l 0,-31.633 -7.37,0 0,31.633 c 0,5.795 -1.807,10.336 -5.423,13.609 -3.277,3.003 -7.339,4.506 -12.181,4.506 -4.573,0 -8.464,-1.431 -11.67,-4.299 C 9.349,42.242 7.574,37.943 7.574,32.553 L 7.574,0 0,0 z"
               inkscape:connector-curvature="0" />
          </g>
          <g
             transform="translate(210.3965,56.6235)"
             id="g3041">
            <path
               id="path3043"
               style="fill:#f47a37;fill-opacity:1;fill-rule:nonzero;stroke:none"
               d="m 0,0 0,-13.754 -7.573,0 0,13.727 c 1.199,-0.114 2.419,-0.176 3.657,-0.176 1.333,0 2.637,0.072 3.916,0.203"
               inkscape:connector-curvature="0" />
          </g>
          <g
             transform="translate(195.249,42.8696)"
             id="g3045">
            <path
               id="path3047"
               style="fill:#f47a37;fill-opacity:1;fill-rule:nonzero;stroke:none"
               d="m 0,0 -7.577,0 0,18.859 C -5.168,17.348 -2.64,16.16 0,15.293 L 0,0 z"
               inkscape:connector-curvature="0" />
          </g>
          <g
             transform="translate(225.5498,42.8696)"
             id="g3049">
            <path
               id="path3051"
               style="fill:#f47a37;fill-opacity:1;fill-rule:nonzero;stroke:none"
               d="m 0,0 -7.576,0 0,15.361 c 2.648,0.885 5.172,2.1 7.576,3.641 L 0,0 z"
               inkscape:connector-curvature="0" />
          </g>
        </g>
      </g>
    </g>
  </g>
</svg>
